<svg width="32" height="32" viewBox="0 0 32 32" fill="none" xmlns="http://www.w3.org/2000/svg">
  <!-- Trade Finance Global Network Icon -->
  <defs>
    <linearGradient id="oceanGradient" x1="0%" y1="0%" x2="100%" y2="100%">
      <stop offset="0%" style="stop-color:#0EA5E9;stop-opacity:1" />
      <stop offset="50%" style="stop-color:#0284C7;stop-opacity:1" />
      <stop offset="100%" style="stop-color:#0369A1;stop-opacity:1" />
    </linearGradient>
    <linearGradient id="goldGradient" x1="0%" y1="0%" x2="100%" y2="100%">
      <stop offset="0%" style="stop-color:#F59E0B;stop-opacity:1" />
      <stop offset="100%" style="stop-color:#D97706;stop-opacity:1" />
    </linearGradient>
    <linearGradient id="waveGradient" x1="0%" y1="0%" x2="100%" y2="0%">
      <stop offset="0%" style="stop-color:#60A5FA;stop-opacity:0.8" />
      <stop offset="50%" style="stop-color:#3B82F6;stop-opacity:0.9" />
      <stop offset="100%" style="stop-color:#2563EB;stop-opacity:0.8" />
    </linearGradient>
  </defs>
  
  <!-- Background Circle with Ocean Theme -->
  <circle cx="16" cy="16" r="15" fill="url(#oceanGradient)" stroke="#0284C7" stroke-width="1"/>
  
  <!-- Global Trade Network Lines -->
  <path d="M8 16 L24 16" stroke="url(#goldGradient)" stroke-width="2" opacity="0.8"/>
  <path d="M16 8 L16 24" stroke="url(#goldGradient)" stroke-width="2" opacity="0.8"/>
  <path d="M10 10 L22 22" stroke="url(#goldGradient)" stroke-width="1.5" opacity="0.6"/>
  <path d="M22 10 L10 22" stroke="url(#goldGradient)" stroke-width="1.5" opacity="0.6"/>
  
  <!-- Trade Finance Waves -->
  <path d="M6 18 Q12 14, 18 18 T30 18" stroke="url(#waveGradient)" stroke-width="2" fill="none"/>
  <path d="M6 20 Q12 16, 18 20 T30 20" stroke="url(#waveGradient)" stroke-width="1.5" fill="none" opacity="0.7"/>
  
  <!-- Central Trade Hub -->
  <circle cx="16" cy="16" r="4" fill="white" opacity="0.9"/>
  <circle cx="16" cy="16" r="2" fill="url(#goldGradient)"/>
  
  <!-- Global Connection Points -->
  <circle cx="8" cy="8" r="2" fill="url(#goldGradient)" opacity="0.8"/>
  <circle cx="24" cy="8" r="2" fill="url(#goldGradient)" opacity="0.8"/>
  <circle cx="8" cy="24" r="2" fill="url(#goldGradient)" opacity="0.8"/>
  <circle cx="24" cy="24" r="2" fill="url(#goldGradient)" opacity="0.8"/>
  <circle cx="8" cy="16" r="1.5" fill="url(#goldGradient)" opacity="0.6"/>
  <circle cx="24" cy="16" r="1.5" fill="url(#goldGradient)" opacity="0.6"/>
  <circle cx="16" cy="8" r="1.5" fill="url(#goldGradient)" opacity="0.6"/>
  <circle cx="16" cy="24" r="1.5" fill="url(#goldGradient)" opacity="0.6"/>
</svg>