<svg width="32" height="32" viewBox="0 0 32 32" fill="none" xmlns="http://www.w3.org/2000/svg">
  <!-- Trade Finance Wave Icon -->
  <defs>
    <linearGradient id="waveGradient" x1="0%" y1="0%" x2="100%" y2="100%">
      <stop offset="0%" style="stop-color:#3B82F6;stop-opacity:1" />
      <stop offset="50%" style="stop-color:#1E40AF;stop-opacity:1" />
      <stop offset="100%" style="stop-color:#1E3A8A;stop-opacity:1" />
    </linearGradient>
    <linearGradient id="accentGradient" x1="0%" y1="0%" x2="100%" y2="100%">
      <stop offset="0%" style="stop-color:#F59E0B;stop-opacity:1" />
      <stop offset="100%" style="stop-color:#D97706;stop-opacity:1" />
    </linearGradient>
  </defs>
  
  <!-- Background Circle -->
  <circle cx="16" cy="16" r="15" fill="url(#waveGradient)" stroke="#1E40AF" stroke-width="1"/>
  
  <!-- Wave Pattern -->
  <path d="M6 20 Q10 12, 16 20 T26 20" stroke="url(#accentGradient)" stroke-width="2" fill="none"/>
  <path d="M6 24 Q10 16, 16 24 T26 24" stroke="url(#accentGradient)" stroke-width="2" fill="none" opacity="0.7"/>
  
  <!-- Trade Symbol -->
  <path d="M12 8 L20 8 L20 12 L16 16 L20 20 L20 24 L12 24 L12 20 L16 16 L12 12 Z" fill="white" opacity="0.9"/>
  
  <!-- Encryption Dots -->
  <circle cx="8" cy="8" r="1.5" fill="white" opacity="0.8"/>
  <circle cx="24" cy="8" r="1.5" fill="white" opacity="0.8"/>
  <circle cx="8" cy="24" r="1.5" fill="white" opacity="0.8"/>
  <circle cx="24" cy="24" r="1.5" fill="white" opacity="0.8"/>
</svg>